<svg viewBox="0 0 300 60" xmlns="http://www.w3.org/2000/svg">
  <rect width="300" height="60" fill="#111" rx="8"/>

  <!-- Icon: scale circle layout 200→50, translate to center vertically -->
  <g transform="translate(4,5) scale(0.25)">

    <!-- Speed lines -->
    <line x1="10" y1="88"  x2="36" y2="88"  stroke="#60a5fa" stroke-width="4.5" opacity="0.4"/>
    <line x1="10" y1="93"  x2="30" y2="93"  stroke="#60a5fa" stroke-width="3.0" opacity="0.25"/>
    <line x1="10" y1="98"  x2="26" y2="98"  stroke="#60a5fa" stroke-width="2.5" opacity="0.18"/>

    <!-- Cube -->
    <polygon points="105,56 138,75 105,94 72,75"
             fill="rgba(96,165,250,0.10)" stroke="#60a5fa" stroke-width="5" stroke-linejoin="round"/>
    <polygon points="72,75 105,94 105,130 72,111"
             fill="rgba(96,165,250,0.06)" stroke="#60a5fa" stroke-width="4.5" stroke-linejoin="round" opacity="0.8"/>
    <polygon points="138,75 105,94 105,130 138,111"
             fill="rgba(255,255,255,0.04)" stroke="#ffffff" stroke-width="4.5" stroke-linejoin="round" opacity="0.6"/>
    <line x1="105" y1="56" x2="105" y2="94" stroke="#60a5fa" stroke-width="2" opacity="0.22"/>
    <line x1="72"  y1="75" x2="138" y2="75" stroke="#60a5fa" stroke-width="2" opacity="0.22"/>

    <!-- Point cloud -->
    <g fill="#60a5fa">
      <circle cx="91"  cy="68"  r="3.5" opacity="0.7"/>
      <circle cx="118" cy="65"  r="2.8" opacity="0.55"/>
      <circle cx="82"  cy="83"  r="3.8" opacity="0.65"/>
      <circle cx="126" cy="84"  r="3.0" opacity="0.6"/>
      <circle cx="88"  cy="106" r="3.2" opacity="0.6"/>
      <circle cx="113" cy="112" r="2.8" opacity="0.6"/>
      <circle cx="105" cy="120" r="2.8" opacity="0.55"/>
    </g>

    <!-- Camera A: bottom-left, LARGE -->
    <g transform="translate(22,128)">
      <rect x="0" y="4" width="24" height="15" rx="2.5" fill="none" stroke="#60a5fa" stroke-width="5"/>
      <rect x="7" y="0" width="10" height="5"  rx="1.2" fill="none" stroke="#60a5fa" stroke-width="4.5"/>
      <circle cx="12" cy="11" r="4.0" fill="none" stroke="#60a5fa" stroke-width="4.5"/>
      <circle cx="12" cy="11" r="1.3" fill="#60a5fa"/>
    </g>
    <!-- Camera B: top-center, MEDIUM -->
    <g transform="translate(76,18)">
      <rect x="0" y="3" width="18" height="12" rx="2" fill="none" stroke="#60a5fa" stroke-width="4"/>
      <rect x="5" y="0" width="8"  height="4"  rx="1" fill="none" stroke="#60a5fa" stroke-width="3.5"/>
      <circle cx="9" cy="9" r="3.0" fill="none" stroke="#60a5fa" stroke-width="3.8"/>
      <circle cx="9" cy="9" r="1.0" fill="#60a5fa"/>
    </g>
    <!-- Camera C: right, SMALL -->
    <g transform="translate(152,85)">
      <rect x="0" y="2" width="13" height="9"  rx="1.5" fill="none" stroke="#60a5fa" stroke-width="3"/>
      <rect x="4" y="0" width="5"  height="3"  rx="0.8" fill="none" stroke="#60a5fa" stroke-width="2.8"/>
      <circle cx="6" cy="6" r="2.0" fill="none" stroke="#60a5fa" stroke-width="2.8"/>
      <circle cx="6" cy="6" r="0.7" fill="#60a5fa"/>
    </g>

    <!-- Rays -->
    <line x1="44"  y1="135" x2="72"  y2="111" stroke="#60a5fa" stroke-width="3" stroke-dasharray="9,7" opacity="0.5"/>
    <line x1="40"  y1="132" x2="72"  y2="75"  stroke="#60a5fa" stroke-width="3" stroke-dasharray="9,7" opacity="0.35"/>
    <line x1="85"  y1="30"  x2="72"  y2="75"  stroke="#60a5fa" stroke-width="2.5" stroke-dasharray="9,7" opacity="0.45"/>
    <line x1="94"  y1="28"  x2="105" y2="56"  stroke="#60a5fa" stroke-width="2.5" stroke-dasharray="9,7" opacity="0.45"/>
    <line x1="102" y1="30"  x2="138" y2="75"  stroke="#60a5fa" stroke-width="2.5" stroke-dasharray="9,7" opacity="0.35"/>
    <line x1="153" y1="90"  x2="138" y2="75"  stroke="#60a5fa" stroke-width="2.2" stroke-dasharray="9,7" opacity="0.4"/>
    <line x1="153" y1="93"  x2="138" y2="111" stroke="#60a5fa" stroke-width="2.2" stroke-dasharray="9,7" opacity="0.4"/>
  </g>

  <line x1="62" y1="10" x2="62" y2="50" stroke="#374151" stroke-width="1"/>

  <text x="74" y="38"
        font-family="-apple-system, BlinkMacSystemFont, 'Segoe UI', sans-serif"
        font-weight="800" font-size="26" letter-spacing="1">
    <tspan fill="#ffffff">Fast</tspan><tspan fill="#60a5fa">MVS</tspan>
  </text>
</svg>
  <rect width="300" height="60" fill="#111" rx="8"/>

  <g transform="translate(5,5)">
    <polygon points="25,8 37,15 25,22 13,15"
             fill="rgba(96,165,250,0.10)" stroke="#60a5fa" stroke-width="1.3" stroke-linejoin="round"/>
    <polygon points="13,15 25,22 25,36 13,29"
             fill="rgba(96,165,250,0.06)" stroke="#60a5fa" stroke-width="1.1" stroke-linejoin="round" opacity="0.8"/>
    <polygon points="37,15 25,22 25,36 37,29"
             fill="rgba(255,255,255,0.04)" stroke="#ffffff" stroke-width="1.1" stroke-linejoin="round" opacity="0.6"/>
    <rect x="3"  y="2"  width="10" height="7" rx="1.2" fill="none" stroke="#60a5fa" stroke-width="1.0"/>
    <circle cx="8"  cy="5.5" r="1.8" fill="none" stroke="#60a5fa" stroke-width="0.9"/>
    <circle cx="8"  cy="5.5" r="0.6" fill="#60a5fa"/>
    <rect x="37" y="2"  width="10" height="7" rx="1.2" fill="none" stroke="#60a5fa" stroke-width="1.0"/>
    <circle cx="42" cy="5.5" r="1.8" fill="none" stroke="#60a5fa" stroke-width="0.9"/>
    <circle cx="42" cy="5.5" r="0.6" fill="#60a5fa"/>
    <rect x="20" y="40" width="10" height="7" rx="1.2" fill="none" stroke="#60a5fa" stroke-width="1.0"/>
    <circle cx="25" cy="43.5" r="1.8" fill="none" stroke="#60a5fa" stroke-width="0.9"/>
    <circle cx="25" cy="43.5" r="0.6" fill="#60a5fa"/>
    <line x1="11" y1="8"  x2="13" y2="15" stroke="#60a5fa" stroke-width="0.7" stroke-dasharray="2,2" opacity="0.5"/>
    <line x1="39" y1="8"  x2="37" y2="15" stroke="#60a5fa" stroke-width="0.7" stroke-dasharray="2,2" opacity="0.5"/>
    <line x1="22" y1="40" x2="13" y2="29" stroke="#60a5fa" stroke-width="0.7" stroke-dasharray="2,2" opacity="0.5"/>
    <line x1="28" y1="40" x2="37" y2="29" stroke="#60a5fa" stroke-width="0.7" stroke-dasharray="2,2" opacity="0.5"/>
    <g fill="#60a5fa">
      <circle cx="21" cy="15" r="0.8" opacity="0.7"/>
      <circle cx="29" cy="13" r="0.7" opacity="0.6"/>
      <circle cx="18" cy="22" r="0.9" opacity="0.65"/>
      <circle cx="32" cy="21" r="0.7" opacity="0.7"/>
      <circle cx="23" cy="28" r="0.8" opacity="0.6"/>
      <circle cx="28" cy="30" r="0.7" opacity="0.65"/>
    </g>
    <line x1="0" y1="22" x2="8" y2="22" stroke="#60a5fa" stroke-width="1.2" opacity="0.4"/>
    <line x1="0" y1="25" x2="6" y2="25" stroke="#60a5fa" stroke-width="0.8" opacity="0.25"/>
  </g>

  <line x1="62" y1="12" x2="62" y2="48" stroke="#374151" stroke-width="1"/>

  <text x="74" y="38"
        font-family="-apple-system, BlinkMacSystemFont, 'Segoe UI', sans-serif"
        font-weight="800" font-size="26" letter-spacing="1">
    <tspan fill="#ffffff">Fast</tspan><tspan fill="#60a5fa">MVS</tspan>
  </text>
</svg>

  <!-- Icon group (scaled down, centered at 30,30) -->
  <g transform="translate(5,5)">
    <!-- Cube -->
    <polygon points="25,8 37,15 25,22 13,15"
             fill="rgba(96,165,250,0.10)" stroke="#60a5fa" stroke-width="1.3" stroke-linejoin="round"/>
    <polygon points="13,15 25,22 25,36 13,29"
             fill="rgba(96,165,250,0.06)" stroke="#60a5fa" stroke-width="1.1" stroke-linejoin="round" opacity="0.8"/>
    <polygon points="37,15 25,22 25,36 37,29"
             fill="rgba(255,255,255,0.04)" stroke="#ffffff" stroke-width="1.1" stroke-linejoin="round" opacity="0.6"/>
    <!-- Small cameras -->
    <rect x="3"  y="2"  width="10" height="7" rx="1.2" fill="none" stroke="#60a5fa" stroke-width="1.0"/>
    <circle cx="8"  cy="5.5" r="1.8" fill="none" stroke="#60a5fa" stroke-width="0.9"/>
    <circle cx="8"  cy="5.5" r="0.6" fill="#60a5fa"/>
    <rect x="37" y="2"  width="10" height="7" rx="1.2" fill="none" stroke="#60a5fa" stroke-width="1.0"/>
    <circle cx="42" cy="5.5" r="1.8" fill="none" stroke="#60a5fa" stroke-width="0.9"/>
    <circle cx="42" cy="5.5" r="0.6" fill="#60a5fa"/>
    <rect x="20" y="40" width="10" height="7" rx="1.2" fill="none" stroke="#60a5fa" stroke-width="1.0"/>
    <circle cx="25" cy="43.5" r="1.8" fill="none" stroke="#60a5fa" stroke-width="0.9"/>
    <circle cx="25" cy="43.5" r="0.6" fill="#60a5fa"/>
    <!-- Rays -->
    <line x1="11" y1="8"  x2="13" y2="15" stroke="#60a5fa" stroke-width="0.7" stroke-dasharray="2,2" opacity="0.5"/>
    <line x1="39" y1="8"  x2="37" y2="15" stroke="#60a5fa" stroke-width="0.7" stroke-dasharray="2,2" opacity="0.5"/>
    <line x1="22" y1="40" x2="13" y2="29" stroke="#60a5fa" stroke-width="0.7" stroke-dasharray="2,2" opacity="0.5"/>
    <line x1="28" y1="40" x2="37" y2="29" stroke="#60a5fa" stroke-width="0.7" stroke-dasharray="2,2" opacity="0.5"/>
    <!-- Point cloud -->
    <g fill="#60a5fa">
      <circle cx="21" cy="15" r="0.8" opacity="0.7"/>
      <circle cx="29" cy="13" r="0.7" opacity="0.6"/>
      <circle cx="18" cy="22" r="0.9" opacity="0.65"/>
      <circle cx="32" cy="21" r="0.7" opacity="0.7"/>
      <circle cx="23" cy="28" r="0.8" opacity="0.6"/>
      <circle cx="28" cy="30" r="0.7" opacity="0.65"/>
    </g>
    <!-- Speed lines -->
    <line x1="0" y1="22" x2="8" y2="22" stroke="#60a5fa" stroke-width="1.2" opacity="0.35"/>
    <line x1="0" y1="25" x2="6" y2="25" stroke="#60a5fa" stroke-width="0.8" opacity="0.22"/>
  </g>

  <!-- Divider -->
  <line x1="62" y1="12" x2="62" y2="48" stroke="#374151" stroke-width="1"/>

  <!-- Text -->
  <text x="74" y="38"
        font-family="-apple-system, BlinkMacSystemFont, 'Segoe UI', sans-serif"
        font-weight="800" font-size="26" letter-spacing="1">
    <tspan fill="#ffffff">Fast</tspan><tspan fill="#60a5fa">MVS</tspan>
  </text>
</svg>
